<?xml version="1.0" encoding="UTF-8" standalone="no"?>
<svg
   xmlns:dc="http://purl.org/dc/elements/1.1/"
   xmlns:cc="http://creativecommons.org/ns#"
   xmlns:rdf="http://www.w3.org/1999/02/22-rdf-syntax-ns#"
   xmlns:svg="http://www.w3.org/2000/svg"
   xmlns="http://www.w3.org/2000/svg"
   xmlns:sodipodi="http://sodipodi.sourceforge.net/DTD/sodipodi-0.dtd"
   xmlns:inkscape="http://www.inkscape.org/namespaces/inkscape"
   id="svg8"
   version="1.1"
   viewBox="0 0 52.916665 52.916668"
   height="200"
   width="200"
   sodipodi:docname="logo.svg"
   inkscape:version="0.92.5 (2060ec1f9f, 2020-04-08)">
  <sodipodi:namedview
     pagecolor="#ffffff"
     bordercolor="#666666"
     borderopacity="1"
     objecttolerance="10"
     gridtolerance="10"
     guidetolerance="10"
     inkscape:pageopacity="0"
     inkscape:pageshadow="2"
     inkscape:window-width="3840"
     inkscape:window-height="2080"
     id="namedview11"
     showgrid="false"
     inkscape:zoom="1.18"
     inkscape:cx="-73.355509"
     inkscape:cy="78.282762"
     inkscape:window-x="-11"
     inkscape:window-y="-11"
     inkscape:window-maximized="1"
     inkscape:current-layer="g4543" />
  <defs
     id="defs2" />
  <metadata
     id="metadata5">
    <rdf:RDF>
      <cc:Work
         rdf:about="">
        <dc:format>image/svg+xml</dc:format>
        <dc:type
           rdf:resource="http://purl.org/dc/dcmitype/StillImage" />
        <dc:title></dc:title>
      </cc:Work>
    </rdf:RDF>
  </metadata>
  <g
     transform="translate(0,-244.08332)"
     id="layer1">
    <rect
       style="stroke-width:0.32142162;fill:#f7df1e;fill-opacity:1"
       y="244.08331"
       x="-2.220446e-16"
       height="52.916668"
       width="52.916668"
       id="rect10" />
    <g
       transform="matrix(1.0577399,0,0,1.0577399,23.540292,268.08388)"
       id="g4543"
       style="fill:#000000;fill-opacity:1">
      <path
         style="fill:#000000;fill-opacity:1"
         d="M 3.46279,12.86 3.45815,12.79 c 0.00149,0.0234 0.00304,0.0467 0.00464,0.07 z"
         id="path4526" />
      <g
         style="fill:currentColor"
         id="g4532"
         transform="matrix(1.6559556,0,0,1.6559556,0.60869048,-0.51498906)">
        <path
           id="path4521"
           d="M 9.13,15 8.6,14.23 a 1.85,1.85 0 0 0 -0.28,-2.54 3.51,3.51 0 0 1 -1.19,-2 c -1.56,2.23 -0.75,3.46 0,4.55 L 6.58,15 A 4.4,4.4 0 0 1 3,10.46 c 0,0 -0.21,-2.16 2.28,-4.27 0,0 2.82,-2.61 1.84,-4.54 L 7.83,1 A 6.57,6.57 0 0 1 10.44,7.94 2.57,2.57 0 0 0 11,7.13 l 0.87,-0.07 c 0.07,0.12 1.84,2.93 0.89,5.3 A 4.72,4.72 0 0 1 9.13,15 Z M 7.13,8.05 8,8.44 a 3,3 0 0 0 0.92,2.48 2.64,2.64 0 0 1 1,2.8 A 3.241,3.241 0 0 0 11.8,12 4.87,4.87 0 0 0 11.39,8.37 1.85,1.85 0 0 1 9.55,9.23 L 9.2,8.55 A 5.31,5.31 0 0 0 8.31,2.75 C 8.17,4.87 6,6.83 5.93,6.94 3.86,8.7 4,10.33 4,10.4 a 3.47,3.47 0 0 0 1.59,3.14 C 5,12.14 5,10.46 7.16,8.05 Z"
           inkscape:connector-curvature="0" />
      </g>
    </g>
  </g>
</svg>
